<svg width="96" height="96" xmlns="http://www.w3.org/2000/svg" xmlns:xlink="http://www.w3.org/1999/xlink" xml:space="preserve" overflow="hidden"><g transform="translate(-617 -198)"><path d="M698.19 271.19C692.56 268.37 684.11 261.19 683.31 234.56 683.02 224.77 676.95 220.56 671.87 218.76 672.06 218.11 672.154 217.437 672.15 216.76 672.15 212.811 668.949 209.61 665 209.61 661.051 209.61 657.85 212.811 657.85 216.76 657.846 217.437 657.94 218.11 658.13 218.76 653.05 220.56 646.98 224.76 646.69 234.56 645.89 261.16 637.44 268.36 631.81 271.18 629.52 272.32 630.67 275 632 275L657.5 275C657.928 279.142 661.633 282.153 665.776 281.724 669.326 281.357 672.133 278.551 672.5 275L698 275C699.33 275 700.48 272.33 698.19 271.19ZM661.85 216.81C661.85 215.07 663.26 213.66 665 213.66 666.74 213.66 668.15 215.07 668.15 216.81 668.146 217.126 668.095 217.439 668 217.74 667.01 217.548 666.007 217.434 665 217.4L665 217.4C663.993 217.441 662.99 217.554 662 217.74 661.903 217.439 661.852 217.126 661.85 216.81Z"/></g></svg>