<svg width="96" height="96" xmlns="http://www.w3.org/2000/svg" xmlns:xlink="http://www.w3.org/1999/xlink" xml:space="preserve" overflow="hidden"><g transform="translate(-444 -198)"><path d="M492 258C485.4 258 480 252.6 480 246 480 239.4 485.4 234 492 234 498.6 234 504 239.4 504 246 504 252.6 498.6 258 492 258ZM519 238.5C518.4 236.3 517.5 234.2 516.4 232.3L518.9 224.8 513.2 219.1 505.7 221.6C503.7 220.5 501.6 219.6 499.4 219L496 212 488 212 484.5 219C482.3 219.6 480.2 220.5 478.3 221.6L470.8 219.1 465.1 224.8 467.6 232.3C466.5 234.3 465.6 236.4 465 238.6L458 242 458 250 465 253.5C465.6 255.7 466.5 257.8 467.6 259.7L465.1 267.2 470.8 272.9 478.3 270.4C480.3 271.5 482.4 272.4 484.6 273L488.1 280 496.1 280 499.6 273C501.8 272.4 503.9 271.5 505.8 270.4L513.3 272.9 519 267.2 516.5 259.7C517.6 257.7 518.5 255.6 519.1 253.4L526.1 249.9 526.1 241.9 519 238.5Z"/></g></svg>