<svg width="96" height="96" xmlns="http://www.w3.org/2000/svg" xmlns:xlink="http://www.w3.org/1999/xlink" xml:space="preserve" overflow="hidden"><g transform="translate(-774 -277)"><path d="M846.539 298C844.881 292.732 839.267 289.805 833.999 291.462 830.882 292.443 828.442 294.884 827.461 298L788 298 788 304 827.461 304C829.119 309.268 834.733 312.195 840.001 310.538 843.118 309.557 845.558 307.116 846.539 304L856 304 856 298ZM837 305C834.791 305 833 303.209 833 301 833 298.791 834.791 297 837 297 839.209 297 841 298.791 841 301 841 303.209 839.209 305 837 305Z"/><path d="M833 339C828.635 339.006 824.776 341.837 823.461 346L788 346 788 352 823.461 352C825.119 357.268 830.733 360.195 836.001 358.538 839.118 357.557 841.558 355.116 842.539 352L856 352 856 346 842.539 346C841.224 341.837 837.365 339.006 833 339ZM833 353C830.791 353 829 351.209 829 349 829 346.791 830.791 345 833 345 835.209 345 837 346.791 837 349 837 351.209 835.209 353 833 353Z"/><path d="M808 315C803.635 315.006 799.776 317.837 798.461 322L788 322 788 328 798.461 328C800.119 333.268 805.733 336.195 811.001 334.538 814.118 333.557 816.558 331.116 817.539 328L856 328 856 322 817.539 322C816.224 317.837 812.365 315.006 808 315ZM808 329C805.791 329 804 327.209 804 325 804 322.791 805.791 321 808 321 810.209 321 812 322.791 812 325 812 327.209 810.209 329 808 329Z"/></g></svg>