<svg width="96" height="96" xmlns="http://www.w3.org/2000/svg" xmlns:xlink="http://www.w3.org/1999/xlink" xml:space="preserve" overflow="hidden"><g transform="translate(-774 -400)"><path d="M856 423 845.941 423C845.373 418.062 840.909 414.52 835.971 415.088 831.815 415.566 828.537 418.844 828.059 423L788 423 788 425 828.059 425C828.627 429.938 833.091 433.48 838.029 432.912 842.185 432.434 845.463 429.156 845.941 425L856 425ZM837 431C833.134 431 830 427.866 830 424 830 420.134 833.134 417 837 417 840.866 417 844 420.134 844 424 843.996 427.864 840.864 430.996 837 431Z" fill="#F8F8F8"/><path d="M856 473 856 471 841.941 471C841.373 466.062 836.909 462.52 831.971 463.088 827.815 463.566 824.537 466.844 824.059 471L788 471 788 473 824.059 473C824.627 477.938 829.091 481.48 834.029 480.912 838.185 480.434 841.463 477.156 841.941 473ZM833 479C829.134 479 826 475.866 826 472 826 468.134 829.134 465 833 465 836.866 465 840 468.134 840 472 839.996 475.864 836.864 478.996 833 479Z" fill="#F8F8F8"/><path d="M808 439C803.418 439.002 799.568 442.446 799.059 447L788 447 788 449 799.059 449C799.627 453.938 804.091 457.48 809.029 456.912 813.185 456.434 816.463 453.156 816.941 449L856 449 856 447 816.941 447C816.432 442.446 812.582 439.002 808 439ZM808 455C804.134 455 801 451.866 801 448 801 444.134 804.134 441 808 441 811.866 441 815 444.134 815 448 814.996 451.864 811.864 454.996 808 455Z" fill="#F8F8F8"/></g></svg>