<svg width="96" height="96" xmlns="http://www.w3.org/2000/svg" xmlns:xlink="http://www.w3.org/1999/xlink" xml:space="preserve" overflow="hidden"><g transform="translate(-362 -400)"><path d="M410 487C429.882 487.004 446.003 470.889 446.007 451.007 446.009 439.223 440.244 428.185 430.573 421.453L429.428 423.094C444.838 433.824 448.632 455.014 437.903 470.425 427.173 485.835 405.982 489.629 390.572 478.899 375.162 468.169 371.368 446.979 382.097 431.569 384.398 428.264 387.268 425.395 390.572 423.094L389.427 421.453C373.109 432.811 369.088 455.248 380.446 471.566 387.178 481.238 398.217 487.002 410 487Z" fill="#F8F8F8"/><path d="M409 407 411 407 411 451 409 451Z" fill="#F8F8F8"/></g></svg>