<svg width="96" height="96" xmlns="http://www.w3.org/2000/svg" xmlns:xlink="http://www.w3.org/1999/xlink" xml:space="preserve" overflow="hidden"><g transform="translate(-362 -277)"><path d="M404 284 416 284 416 328 404 328Z"/><path d="M431.8 296.9 424.9 306.7C431.6 311.4 436 319.2 436 328 436 342.3 424.3 354 410 354 395.7 354 384 342.3 384 328 384 319.2 388.4 311.4 395.1 306.7L388.2 296.9C378.4 303.7 372 315.1 372 328 372 349 389 366 410 366 431 366 448 349 448 328 448 315.1 441.6 303.7 431.8 296.9Z"/></g></svg>