<svg width="96" height="96" xmlns="http://www.w3.org/2000/svg" xmlns:xlink="http://www.w3.org/1999/xlink" xml:space="preserve" overflow="hidden"><g transform="translate(-506 -277)"><path d="M554 363.3C547.5 363.3 541.8 358.7 540.4 352.4 538.9 346 542.1 339.5 548 336.7L548 292.7C548 289.4 550.7 286.7 554 286.7 557.3 286.7 560 289.4 560 292.7L560 336.7C565.9 339.5 569 346 567.6 352.4 566.1 358.7 560.5 363.2 554 363.3L554 363.3ZM566 333.3 566 292.7C566 286.1 560.6 280.7 554 280.7 547.4 280.7 542 286 542 292.7L542 333.3C535.1 338.5 532.3 347.5 535 355.6 537.7 363.8 545.4 369.3 554 369.3 562.6 369.3 570.3 363.8 573 355.6 575.7 347.5 572.9 338.5 566 333.3Z"/><path d="M556 339.5 556 315.3 552 315.3 552 339.5C547 340.5 543.5 345.2 544.1 350.3 544.6 355.4 548.9 359.3 554 359.3 559.1 359.3 563.4 355.4 563.9 350.3 564.5 345.2 561 340.5 556 339.5Z"/></g></svg>