<svg width="96" height="96" xmlns="http://www.w3.org/2000/svg" xmlns:xlink="http://www.w3.org/1999/xlink" xml:space="preserve" overflow="hidden"><g transform="translate(-506 -400)"><path d="M564.04 456.623 564.04 415.69C564.04 410.167 559.563 405.69 554.04 405.69 548.517 405.69 544.04 410.167 544.04 415.69L544.04 456.623C538.758 460.042 535.56 465.898 535.54 472.19 535.54 482.402 543.815 490.683 554.027 490.69 554.379 490.69 554.733 490.68 555.087 490.661 565.288 490.085 573.091 481.349 572.515 471.148 572.181 465.228 569.03 459.827 564.04 456.623ZM570.481 473.613C569.696 482.692 561.701 489.416 552.622 488.631 548.906 488.31 545.409 486.74 542.7 484.176 536.079 477.914 535.788 467.471 542.049 460.85 543.084 459.757 544.263 458.81 545.554 458.036L546.039 457.744 546.039 415.69C546.039 411.272 549.621 407.69 554.039 407.69 558.457 407.69 562.039 411.272 562.039 415.69L562.039 457.744 562.524 458.035C567.945 461.271 571.037 467.324 570.481 473.613Z" fill="#F8F8F8"/><path d="M555.04 463.754 555.04 437.69 553.04 437.69 553.04 463.754C548.378 464.306 545.047 468.533 545.599 473.195 546.151 477.857 550.378 481.188 555.04 480.636 559.702 480.084 563.033 475.857 562.481 471.195 562.019 467.293 558.942 464.216 555.04 463.754ZM554.04 478.69C550.45 478.69 547.54 475.78 547.54 472.19 547.54 468.6 550.45 465.69 554.04 465.69 557.63 465.69 560.54 468.6 560.54 472.19 560.536 475.778 557.628 478.686 554.04 478.69Z" fill="#F8F8F8"/></g></svg>