<svg width="96" height="96" xmlns="http://www.w3.org/2000/svg" xmlns:xlink="http://www.w3.org/1999/xlink" xml:space="preserve" overflow="hidden"><g transform="translate(-640 -299)"><path d="M663 347.5C663 352.194 659.194 356 654.5 356 649.806 356 646 352.194 646 347.5 646 342.806 649.806 339 654.5 339 659.194 339 663 342.806 663 347.5Z"/><path d="M696 347.5C696 352.194 692.194 356 687.5 356 682.806 356 679 352.194 679 347.5 679 342.806 682.806 339 687.5 339 692.194 339 696 342.806 696 347.5Z"/><path d="M729 347.5C729 352.194 725.194 356 720.5 356 715.806 356 712 352.194 712 347.5 712 342.806 715.806 339 720.5 339 725.194 339 729 342.806 729 347.5Z"/></g></svg>