<svg width="945" height="918" xmlns="http://www.w3.org/2000/svg" xmlns:xlink="http://www.w3.org/1999/xlink" xml:space="preserve" overflow="hidden"><defs><clipPath id="clip0"><rect x="1093" y="897" width="945" height="918"/></clipPath></defs><g clip-path="url(#clip0)" transform="translate(-1093 -897)"><rect x="1362" y="1238" width="658" height="550" fill="#9DC3E6"/><path d="M1337.41 1242.41C1386.22 1192.81 1465.68 1192.49 1514.89 1241.7 1515.15 1241.96 1515.41 1242.22 1515.67 1242.48Z" fill="#9DC3E6" fill-rule="evenodd"/><path d="M1681.42 1238.92C1632.5 1288.22 1553.04 1288.38 1503.93 1239.27 1503.79 1239.13 1503.65 1238.99 1503.51 1238.84Z" fill="#FFFFFF" fill-rule="evenodd"/><path d="M1674.41 1242.41C1723.22 1192.81 1802.68 1192.49 1851.89 1241.7 1852.15 1241.96 1852.41 1242.22 1852.67 1242.48Z" fill="#9DC3E6" fill-rule="evenodd"/><path d="M2018.42 1238.92C1969.5 1288.22 1890.04 1288.38 1840.93 1239.27 1840.79 1239.13 1840.65 1238.99 1840.51 1238.84Z" fill="#FFFFFF" fill-rule="evenodd"/><rect x="2014" y="897" width="24.0001" height="891" fill="#595959"/><rect x="1337" y="897" width="25.0001" height="891" fill="#595959"/><rect x="1337" y="1788" width="701" height="27.0001" fill="#595959"/><path d="M1093 1120 1561.44 1120" stroke="#000000" stroke-width="16.0417" stroke-miterlimit="8" stroke-dasharray="16.0417 16.0417" fill="none" fill-rule="evenodd"/><path d="M1093 1341 1561.44 1341" stroke="#000000" stroke-width="16.0417" stroke-miterlimit="8" fill="none" fill-rule="evenodd"/></g></svg>