<svg width="959" height="918" xmlns="http://www.w3.org/2000/svg" xmlns:xlink="http://www.w3.org/1999/xlink" xml:space="preserve" overflow="hidden"><defs><clipPath id="clip0"><rect x="51" y="897" width="959" height="918"/></clipPath></defs><g clip-path="url(#clip0)" transform="translate(-51 -897)"><rect x="333" y="1028" width="658" height="760" fill="#9DC3E6"/><path d="M318.407 1030.41C367.223 980.81 446.684 980.492 495.889 1029.7 496.15 1029.96 496.41 1030.22 496.669 1030.48Z" fill="#9DC3E6" fill-rule="evenodd"/><path d="M662.593 1027.59C613.777 1077.19 534.316 1077.51 485.111 1028.3 484.85 1028.04 484.59 1027.78 484.331 1027.52Z" fill="#FFFFFF" fill-rule="evenodd"/><path d="M655.406 1030.41C704.222 980.81 783.684 980.492 832.889 1029.7 833.15 1029.96 833.41 1030.22 833.669 1030.48Z" fill="#9DC3E6" fill-rule="evenodd"/><path d="M999.594 1027.59C950.778 1077.19 871.316 1077.51 822.111 1028.3 821.85 1028.04 821.59 1027.78 821.331 1027.52Z" fill="#FFFFFF" fill-rule="evenodd"/><rect x="985" y="897" width="25.0001" height="891" fill="#595959"/><rect x="308" y="897" width="25.0001" height="891" fill="#595959"/><rect x="308" y="1788" width="702" height="27.0001" fill="#595959"/><path d="M50.9999 1120 519.443 1120" stroke="#000000" stroke-width="16.0417" stroke-miterlimit="8" fill="none" fill-rule="evenodd"/><path d="M51.9999 1341 520.443 1341" stroke="#000000" stroke-width="16.0417" stroke-miterlimit="8" fill="none" fill-rule="evenodd"/></g></svg>