<svg width="961" height="918" xmlns="http://www.w3.org/2000/svg" xmlns:xlink="http://www.w3.org/1999/xlink" xml:space="preserve" overflow="hidden"><defs><clipPath id="clip0"><rect x="2117" y="897" width="961" height="918"/></clipPath></defs><g clip-path="url(#clip0)" transform="translate(-2117 -897)"><rect x="2402" y="1458" width="657" height="330" fill="#9DC3E6"/><path d="M2387.09 1460.59C2435.61 1410.89 2514.75 1410.41 2563.86 1459.52 2564.24 1459.9 2564.62 1460.28 2564.99 1460.66Z" fill="#9DC3E6" fill-rule="evenodd"/><path d="M2731.42 1456.92C2682.5 1506.22 2603.04 1506.38 2553.93 1457.27 2553.79 1457.13 2553.65 1456.99 2553.51 1456.84Z" fill="#FFFFFF" fill-rule="evenodd"/><path d="M2723.41 1460.41C2772.22 1410.81 2851.68 1410.49 2900.89 1459.7 2901.15 1459.96 2901.41 1460.22 2901.67 1460.48Z" fill="#9DC3E6" fill-rule="evenodd"/><path d="M3068.42 1456.92C3019.5 1506.22 2940.04 1506.38 2890.93 1457.27 2890.79 1457.13 2890.65 1456.99 2890.51 1456.84Z" fill="#FFFFFF" fill-rule="evenodd"/><rect x="3054" y="897" width="24" height="890" fill="#595959"/><rect x="2377" y="897" width="25" height="890" fill="#595959"/><rect x="2377" y="1788" width="701" height="27.0001" fill="#595959"/><path d="M2121 1341 2589.44 1341" stroke="#000000" stroke-width="16.0417" stroke-miterlimit="8" stroke-dasharray="16.0417 16.0417" fill="none" fill-rule="evenodd"/><path d="M2117 1120 2585.44 1120" stroke="#000000" stroke-width="16.0417" stroke-miterlimit="8" stroke-dasharray="16.0417 16.0417" fill="none" fill-rule="evenodd"/></g></svg>